<?xml version="1.0" standalone="no"?>
<!DOCTYPE svg PUBLIC "-//W3C//DTD SVG 20010904//EN"
 "http://www.w3.org/TR/2001/REC-SVG-20010904/DTD/svg10.dtd">
<svg version="1.0" xmlns="http://www.w3.org/2000/svg"
 width="24px" height="24px" viewBox="0 0 2000.000000 2000.000000"
 preserveAspectRatio="xMidYMid meet">

<g transform="translate(0.000000,2000.000000) scale(0.100000,-0.100000)"
fill="white" stroke="none">
<path d="M9853 18016 c-94 -276 -296 -593 -561 -881 -111 -121 -266 -265 -617
-576 -159 -141 -395 -373 -477 -469 -124 -147 -290 -389 -398 -583 l-32 -57
-61 53 c-87 75 -141 110 -259 167 -286 138 -640 169 -964 84 -337 -87 -644
-263 -920 -527 -121 -116 -202 -212 -293 -352 -68 -105 -179 -326 -230 -459
l-30 -79 56 6 55 6 -20 -22 c-23 -25 -173 -338 -252 -527 -151 -361 -244 -740
-296 -1205 -25 -219 -25 -690 0 -987 11 -126 23 -228 27 -228 5 0 14 10 20 23
19 36 236 382 317 507 164 250 370 535 505 697 106 127 303 329 379 388 60 47
57 43 -46 -65 -198 -210 -314 -361 -571 -750 -133 -201 -148 -225 -428 -690
-262 -436 -375 -595 -671 -944 -318 -376 -585 -660 -866 -924 -85 -80 -156
-148 -158 -152 -1 -3 116 -118 260 -255 883 -842 1178 -1204 1541 -1890 197
-374 441 -778 630 -1045 293 -413 576 -753 881 -1055 246 -245 411 -367 1006
-748 237 -152 429 -296 610 -457 137 -121 177 -159 507 -475 418 -400 533
-508 898 -845 171 -158 381 -361 468 -451 l159 -164 26 35 c173 227 1236 1279
1747 1730 393 347 456 393 1020 762 496 323 824 605 1280 1098 230 249 584
747 835 1175 334 567 491 810 686 1055 233 294 424 493 854 892 151 140 285
266 298 280 l23 25 -213 195 c-406 372 -824 824 -1064 1148 -169 227 -260 376
-529 860 -421 759 -763 1290 -1084 1685 -243 300 -467 546 -720 793 -114 111
-81 92 79 -44 156 -133 495 -476 697 -703 370 -415 793 -982 984 -1316 104
-183 108 -190 215 -390 53 -99 142 -260 198 -359 l101 -179 7 104 c3 57 10
257 13 444 11 508 -17 770 -126 1206 -205 817 -504 1318 -886 1484 l-72 32 99
32 c114 38 211 82 257 117 28 21 30 27 22 51 -5 16 -29 91 -54 167 -58 178
-117 303 -210 441 -149 223 -353 422 -600 585 -208 137 -430 230 -631 265
-144 26 -368 23 -504 -5 -230 -47 -428 -157 -523 -290 -21 -30 -15 -36 -97
113 -193 350 -431 601 -1155 1221 -305 262 -487 461 -672 736 -98 147 -207
393 -228 519 -4 25 -11 39 -17 35 -8 -5 -9 -80 -4 -243 7 -252 -4 -434 -29
-485 -26 -51 -15 -359 12 -332 3 3 5 50 4 104 -1 62 3 109 10 126 13 27 73 66
102 66 17 0 51 -76 62 -134 6 -36 5 -38 -9 -27 -14 12 -16 10 -16 -11 0 -14 5
-39 11 -56 9 -26 15 -31 33 -26 19 4 29 -7 74 -83 75 -125 241 -328 448 -547
394 -415 490 -523 627 -706 106 -141 250 -359 327 -495 191 -339 265 -546 277
-778 l6 -118 101 -72 c395 -279 755 -622 1153 -1099 437 -524 702 -927 974
-1483 297 -608 447 -1126 520 -1797 26 -245 37 -752 20 -983 -38 -518 -158
-989 -394 -1543 -141 -332 -360 -698 -716 -1202 -278 -393 -630 -771 -980
-1052 -266 -213 -413 -298 -901 -520 -329 -149 -527 -263 -830 -476 -280 -198
-501 -380 -797 -658 -79 -74 -147 -134 -151 -134 -5 0 -29 21 -54 47 -24 27
-96 95 -159 153 -63 57 -159 147 -214 200 -279 264 -498 439 -810 647 -284
188 -327 209 -553 268 -350 92 -472 149 -668 313 -356 297 -447 375 -571 491
-427 395 -891 986 -1177 1496 -81 144 -268 522 -325 655 -326 769 -480 1604
-443 2402 36 762 170 1330 452 1913 237 490 661 1057 1210 1618 280 287 455
423 1000 775 87 56 140 104 165 147 12 22 39 96 60 165 71 241 125 368 245
576 175 304 380 570 770 1000 224 247 416 464 511 579 74 90 109 140 232 335
44 69 53 68 82 -5 12 -32 22 -45 36 -45 31 0 23 36 -21 91 -43 55 -46 65 -26
92 20 26 42 21 56 -13 7 -17 15 -28 17 -26 17 17 32 151 33 282 0 82 7 250 16
373 8 122 14 231 12 242 -2 11 -17 -23 -35 -75z m3164 -3566 c302 -55 604
-201 897 -434 211 -168 424 -388 583 -603 103 -139 275 -413 260 -413 -2 0
-24 30 -49 68 -47 70 -113 158 -212 283 -90 113 -317 331 -445 427 -318 239
-675 396 -1104 486 l-108 22 -99 88 c-55 49 -100 93 -100 99 0 16 247 1 377
-23z m-7737 -173 c-36 -18 -86 -47 -110 -64 -109 -74 -119 -62 -13 14 58 41
147 82 178 82 6 0 -19 -14 -55 -32z m1107 -246 c24 -24 42 -45 41 -46 -2 -1
-30 -16 -63 -35 -91 -50 -334 -211 -443 -294 -213 -161 -543 -480 -700 -676
-135 -170 -138 -172 -101 -105 207 381 512 725 1020 1147 63 53 122 104 129
113 13 16 17 14 44 -21 17 -22 50 -59 73 -83z m-1864 -4336 c45 -88 87 -190
87 -209 0 -9 -16 -16 -45 -20 -42 -7 -47 -5 -70 22 -24 29 -54 45 -107 56 -16
4 -28 13 -28 22 0 29 41 135 71 185 36 58 34 60 92 -56z m-203 -225 c0 -6 25
-37 55 -70 30 -33 55 -63 55 -66 0 -14 -73 -199 -87 -220 -13 -21 -71 -64 -86
-64 -3 0 -15 20 -27 45 -22 46 -96 119 -111 109 -12 -7 -11 0 6 71 8 33 15 93
15 133 l0 72 90 0 c54 0 90 -4 90 -10z m391 -30 c4 -14 13 -53 21 -88 l15 -62
-41 -19 c-48 -21 -122 -94 -172 -168 -19 -29 -39 -53 -45 -53 -5 0 -9 64 -9
154 l0 154 68 46 c110 73 151 82 163 36z m10792 -88 c9 -10 22 -33 28 -50 9
-26 8 -37 -8 -63 -30 -52 -47 -57 -77 -23 -44 49 -43 85 2 137 19 22 35 22 55
-1z m31 -350 c54 -82 149 -173 206 -198 22 -10 40 -21 40 -26 0 -4 -19 -12
-42 -18 -90 -23 -142 -65 -206 -168 -15 -23 -33 -41 -41 -40 -8 2 -44 37 -80
78 -94 109 -122 128 -192 136 -32 4 -59 9 -59 13 0 3 24 16 53 29 66 28 97 56
181 161 66 82 67 83 61 45 -11 -58 -41 -122 -86 -182 -44 -58 -43 -67 8 -81
27 -8 35 -5 59 20 15 16 31 29 36 29 4 0 8 -52 8 -115 0 -63 4 -115 9 -115 13
0 22 97 16 170 -5 54 -4 62 7 50 42 -48 53 -52 97 -34 l42 16 -54 57 c-98 103
-142 194 -129 269 l6 37 6 -31 c4 -18 28 -63 54 -102z"/>
<path d="M9896 17243 c-3 -42 -6 -134 -6 -205 l0 -130 -54 -81 c-110 -168
-121 -201 -141 -427 -15 -158 -43 -439 -120 -1190 -20 -190 -45 -437 -56 -550
-10 -113 -23 -230 -27 -260 l-7 -55 -79 -43 c-44 -23 -83 -48 -88 -55 -10 -16
-10 -79 1 -96 8 -12 28 -8 118 22 217 72 494 106 697 87 133 -12 209 -27 356
-69 58 -17 112 -31 121 -31 18 0 29 28 29 77 0 40 -23 57 -111 83 -37 11 -71
26 -77 33 -5 6 -22 172 -36 367 -60 792 -84 1046 -162 1709 -20 173 -29 224
-49 262 -29 59 -91 143 -135 184 l-32 30 6 -285 c4 -157 11 -714 17 -1239 5
-524 11 -959 12 -965 1 -6 -17 -12 -45 -14 l-48 -3 0 318 c-1 428 -29 2120
-40 2358 -8 188 -15 245 -30 245 -4 0 -10 -34 -14 -77z m303 -1298 c6 -66 15
-196 21 -290 27 -435 70 -1159 70 -1176 0 -27 -29 -23 -40 5 -21 57 -81 1183
-80 1521 1 121 15 91 29 -60z"/>
<path d="M9715 16999 c-8 -34 1 -51 15 -29 12 19 13 60 1 60 -5 0 -12 -14 -16
-31z"/>
<path d="M9725 14170 c-44 -5 -110 -15 -148 -24 -73 -17 -183 -68 -189 -88
-10 -29 8 -62 53 -101 47 -41 49 -44 49 -97 1 -88 -103 -1104 -112 -1111 -5
-3 -46 -11 -90 -18 -45 -6 -83 -13 -86 -16 -5 -4 -71 -225 -72 -237 0 -13 31
-9 177 18 616 114 857 120 1317 29 72 -14 134 -25 139 -25 10 0 4 63 -14 141
-10 46 -11 46 -71 64 -41 13 -62 25 -68 39 -4 12 -28 230 -54 486 -71 719 -69
689 -51 714 8 11 27 38 42 59 l27 39 -25 18 c-32 25 -150 64 -274 90 -113 24
-410 35 -550 20z m327 -116 c14 -207 32 -1234 21 -1245 -7 -7 -26 -8 -54 -2
l-44 9 -6 64 c-4 36 -7 329 -8 652 l-1 586 33 21 c17 11 37 19 42 18 6 -2 13
-48 17 -103z m259 -71 c12 -14 22 -393 10 -393 -21 0 -33 52 -22 89 12 40 7
51 -20 51 -27 0 -24 17 6 24 29 7 31 25 10 66 -9 17 -15 32 -15 35 0 3 0 9 0
14 0 5 -10 12 -22 16 l-23 7 25 7 c19 5 26 15 28 39 3 26 -1 34 -22 44 -14 6
-26 15 -26 19 0 9 60 -7 71 -18z m27 -501 c4 -66 -18 -71 -37 -8 -14 49 -9 69
17 64 13 -2 18 -16 20 -56z m10 -143 c-3 -43 -16 -56 -29 -28 -3 8 -11 25 -18
37 -7 13 -11 25 -9 25 2 1 12 7 23 13 28 16 37 4 33 -47z m2 -113 c0 -13 3
-38 6 -55 6 -26 3 -31 -13 -31 -15 0 -19 7 -19 38 0 20 -4 45 -8 55 -6 13 -4
17 13 17 15 0 21 -6 21 -24z m14 -140 c-3 -8 -12 -12 -20 -9 -21 8 -17 23 6
23 13 0 18 -5 14 -14z m11 -226 c3 -5 -1 -10 -9 -10 -9 0 -16 5 -16 10 0 6 4
10 9 10 6 0 13 -4 16 -10z m5 -60 c0 -11 -7 -20 -15 -20 -15 0 -21 21 -8 33
12 13 23 7 23 -13z"/>
<path d="M8595 13013 c-214 -50 -494 -176 -730 -330 -246 -161 -410 -296 -630
-517 -258 -259 -397 -436 -565 -717 -393 -657 -535 -1549 -395 -2494 68 -463
234 -1085 390 -1461 138 -334 421 -785 683 -1088 165 -192 407 -413 538 -492
21 -12 16 -19 -181 -249 -220 -255 -291 -368 -260 -412 34 -48 484 -292 798
-433 255 -114 567 -303 851 -518 174 -131 322 -255 720 -604 134 -118 171
-146 184 -138 10 5 71 57 137 115 419 371 803 660 1185 889 80 48 342 186 583
307 375 189 437 223 437 242 0 11 -8 63 -17 114 -17 92 -19 95 -90 185 -130
164 -146 181 -318 357 l-170 173 38 32 c198 162 276 232 427 385 248 250 443
485 622 746 349 511 577 1137 665 1830 24 188 24 660 0 850 -57 444 -163 835
-328 1205 -86 193 -259 520 -345 652 -91 140 -245 344 -350 463 -49 55 -123
141 -164 190 -177 212 -393 378 -664 511 -122 60 -351 143 -362 131 -3 -3 25
-15 63 -27 244 -81 526 -295 703 -535 70 -95 130 -255 116 -311 -9 -36 -40
-30 -141 27 -113 65 -348 179 -354 173 -3 -2 6 -12 20 -22 95 -66 396 -355
525 -502 197 -226 404 -578 517 -880 99 -265 176 -599 219 -950 18 -145 17
-748 0 -895 -62 -503 -215 -1033 -414 -1430 -174 -350 -355 -601 -615 -856
-148 -144 -441 -399 -460 -399 -5 0 -17 16 -27 35 -12 21 -71 76 -151 139
-165 131 -164 130 -136 160 12 13 84 56 159 96 75 40 171 96 212 124 41 29 93
62 115 75 44 25 165 121 165 130 0 3 -196 7 -434 9 -239 2 -448 7 -463 11 -28
8 116 14 654 28 l252 6 30 49 c17 27 31 52 31 56 0 4 -291 9 -648 11 -356 2
-650 5 -654 8 -16 9 -7 21 15 21 12 0 311 3 664 7 l641 8 77 76 c42 42 88 95
102 119 46 78 125 73 -1028 75 -1000 2 -1025 2 -1053 -17 -28 -19 -29 -19 -42
-2 -7 11 -15 24 -17 30 -4 12 -97 12 -1112 -4 -782 -12 -1016 -18 -1023 -25
-12 -12 27 -64 107 -142 76 -75 83 -85 67 -96 -16 -12 -15 -16 5 -74 27 -75
168 -269 205 -283 14 -6 48 -10 76 -10 l50 0 -31 -29 c-65 -61 -34 -101 152
-193 43 -22 102 -42 130 -46 l52 -7 -210 -202 -210 -201 -65 35 c-192 105
-418 295 -574 483 -207 248 -427 585 -543 830 -60 127 -146 371 -141 398 2 11
27 -19 72 -85 37 -57 71 -103 75 -103 12 0 -43 209 -78 295 -31 75 -92 265
-91 282 1 4 10 -10 22 -32 97 -184 384 -562 568 -746 85 -85 368 -309 391
-309 24 0 14 15 -111 161 -73 85 -262 353 -332 469 -150 251 -303 578 -380
815 -80 245 -144 562 -168 833 -18 196 -8 581 19 740 74 434 204 787 411 1118
260 415 703 829 1124 1050 110 58 116 65 31 33 -73 -27 -113 -20 -164 29 -96
91 -46 226 121 325 35 20 110 56 168 78 58 23 107 43 109 45 5 5 -28 3 -54 -3z
m1984 -6400 c425 -426 604 -612 650 -676 35 -49 61 -89 60 -91 -2 -1 -36 -27
-75 -58 -67 -54 -110 -98 -350 -364 -92 -101 -275 -302 -508 -554 -28 -31
-118 -131 -200 -223 -82 -92 -154 -167 -161 -165 -7 2 -79 77 -160 168 -82 91
-154 170 -160 175 -6 6 -58 61 -115 123 -99 108 -103 114 -86 130 17 16 18 16
11 -7 -6 -20 -4 -23 10 -17 15 5 16 4 5 -9 -15 -18 0 -20 19 -2 11 9 13 9 7 0
-4 -7 -2 -13 5 -13 9 0 9 -3 0 -14 -10 -12 -8 -17 8 -26 12 -6 21 -18 21 -28
1 -15 2 -15 15 2 8 11 18 17 21 13 4 -4 13 1 20 11 7 9 16 14 20 9 4 -4 -1
-14 -12 -23 -18 -15 -18 -15 2 -5 18 9 37 -7 164 -141 l144 -151 21 28 c28 39
307 366 493 579 87 98 192 220 236 270 43 50 130 143 193 207 l116 117 -84
103 c-105 131 -284 341 -413 484 -121 134 -460 461 -500 482 -16 8 -42 13 -57
11 -16 -3 -29 -1 -29 4 0 5 -4 7 -9 3 -6 -3 -6 7 0 27 5 18 9 37 9 41 0 5 -62
-54 -137 -130 -235 -236 -332 -325 -349 -319 -9 3 -12 2 -9 -5 4 -6 0 -18 -8
-27 -9 -9 -43 -45 -75 -79 -32 -35 -57 -64 -56 -66 2 -2 -16 -23 -40 -46 -33
-32 -46 -39 -51 -29 -5 7 -5 10 0 6 7 -6 51 38 54 55 2 11 35 44 42 41 12 -6
49 55 43 73 -4 13 -3 14 3 5 7 -10 13 -9 25 5 8 10 18 25 22 33 4 8 -2 4 -14
-10 -12 -14 -20 -19 -18 -13 6 24 421 442 432 436 6 -3 8 -2 3 2 -10 11 23 46
36 38 5 -3 7 -1 4 4 -4 6 8 24 26 39 18 16 57 57 87 92 30 34 56 62 59 62 2 0
268 -264 590 -587z m869 341 c51 -4 92 -11 92 -16 0 -12 -678 -10 -685 2 -4 6
68 11 177 13 101 1 215 3 254 5 39 1 112 -1 162 -4z m122 -14 c0 -5 -4 -10
-10 -10 -5 0 -10 5 -10 10 0 6 5 10 10 10 6 0 10 -4 10 -10z m-300 -150 c-69
-16 -247 -23 -255 -10 -5 8 -2 10 11 7 11 -3 46 -2 79 2 33 5 92 9 130 9 58 0
64 -1 35 -8z m-1253 -108 c121 -121 287 -295 374 -392 141 -157 325 -374 337
-397 20 -36 14 -60 -22 -90 -33 -27 -172 -178 -321 -348 -38 -44 -127 -141
-196 -215 -70 -74 -151 -163 -181 -197 -29 -35 -58 -63 -64 -63 -6 0 -69 62
-140 138 -70 75 -255 264 -409 420 -154 156 -281 287 -283 292 -8 22 96 139
485 554 73 78 179 191 235 253 57 61 106 112 110 112 5 1 38 -29 75 -67z
m-792 -178 c-76 -99 -108 -134 -118 -127 -6 4 -7 1 -2 -6 9 -15 -33 -63 -48
-54 -6 3 -7 1 -3 -5 4 -7 -18 -41 -51 -80 -32 -38 -105 -128 -162 -200 -57
-73 -110 -132 -118 -132 -7 0 -26 -8 -40 -17 -15 -10 -24 -12 -20 -5 5 8 2 12
-9 12 -16 0 -16 1 1 20 10 11 22 17 28 13 6 -3 7 -1 3 6 -15 24 350 432 366
409 6 -9 7 -6 4 8 -5 16 0 24 21 34 16 7 32 13 37 11 5 -1 6 5 2 14 -3 9 -2
14 3 11 4 -3 13 6 19 19 7 14 18 25 26 25 8 0 18 5 22 12 5 7 2 8 -7 3 -8 -4
6 13 30 38 25 26 46 45 49 43 2 -2 -13 -25 -33 -52z m-97 -214 c-9 -6 -29 -25
-43 -43 -15 -17 -22 -23 -17 -12 15 29 51 65 65 65 7 0 4 -5 -5 -10z m-95
-134 c7 4 -6 -12 -27 -34 -22 -23 -44 -38 -49 -35 -6 3 -7 1 -4 -4 4 -6 -9
-25 -28 -42 -20 -17 -33 -31 -30 -31 5 0 -40 -52 -98 -113 -36 -37 -29 -7 9
40 86 106 208 235 212 224 2 -6 9 -8 15 -5z m-183 -319 c0 -6 -9 0 -20 13 -11
13 -20 25 -20 28 0 3 9 -3 20 -13 11 -10 20 -23 20 -28z m-136 6 l20 -27 -27
20 c-26 18 -35 34 -19 34 4 0 16 -13 26 -27z m41 -33 c3 -5 1 -10 -4 -10 -6 0
-11 5 -11 10 0 6 2 10 4 10 3 0 8 -4 11 -10z m460 -369 c3 -5 2 -12 -3 -15 -5
-3 -9 1 -9 9 0 17 3 19 12 6z m113 -121 c7 -11 11 -20 9 -20 -2 0 -12 9 -22
20 -10 11 -14 20 -9 20 5 0 15 -9 22 -20z m90 -105 c-3 -3 -9 2 -12 12 -6 14
-5 15 5 6 7 -7 10 -15 7 -18z m-60 -35 c17 -27 10 -25 -19 6 -13 14 -17 23 -9
19 9 -3 21 -14 28 -25z m133 -62 c-12 -11 -13 -10 -8 5 5 12 1 20 -11 25 -9 4
-18 14 -20 22 -2 9 8 4 25 -12 23 -23 25 -30 14 -40z m-36 2 c-3 -4 0 -10 7
-12 10 -4 9 -9 -3 -20 -14 -14 -17 -14 -29 6 -12 19 -12 20 3 7 10 -8 17 -9
17 -3 0 6 -5 14 -10 17 -6 4 -8 11 -4 16 3 5 10 7 15 3 5 -3 7 -9 4 -14z m159
-121 c-4 -6 -11 -5 -21 2 -12 10 -16 10 -24 -2 -8 -11 -9 -9 -7 8 2 12 -7 32
-21 47 -17 18 -20 26 -10 26 12 0 12 2 -1 9 -8 6 -18 7 -22 5 -10 -6 -11 10 0
20 10 10 114 -103 106 -115z"/>
<path d="M10417 6713 c-19 -19 4 -55 117 -180 164 -183 590 -613 645 -652 44
-31 61 -38 61 -23 0 26 -787 862 -812 862 -2 0 -8 -3 -11 -7z"/>
<path d="M9584 4948 c-4 -5 -1 -15 5 -21 9 -9 11 -8 6 4 -5 13 -1 15 19 12 14
-3 26 -1 26 5 0 12 -48 13 -56 0z"/>
<path d="M9685 4910 c5 -8 8 -23 7 -32 -4 -24 4 -23 11 2 3 11 -2 25 -11 32
-13 11 -14 11 -7 -2z"/>
<path d="M9857 6609 c-4 -16 -3 -18 9 -8 7 6 11 15 8 20 -8 13 -11 11 -17 -12z"/>
<path d="M9838 6543 c-44 -43 -153 -159 -241 -258 -89 -99 -212 -235 -274
-302 -62 -67 -113 -126 -113 -131 0 -34 666 -712 700 -712 4 0 50 44 102 98
51 53 203 208 338 344 135 136 246 257 248 268 4 23 -25 65 -167 245 -121 153
-249 304 -320 378 -52 55 -169 147 -186 147 -4 0 -43 -35 -87 -77z m158 -293
c35 -15 90 -62 202 -173 84 -84 173 -178 198 -210 49 -65 50 -82 9 -147 -25
-39 -99 -110 -116 -110 -6 0 -79 -29 -161 -65 -83 -36 -153 -64 -155 -61 -16
16 -46 786 -30 786 3 0 27 -9 53 -20z m-101 -522 c4 -186 4 -338 0 -338 -14 0
-77 51 -155 125 -41 39 -110 100 -154 136 -43 35 -90 73 -104 85 l-26 21 24
34 c46 64 202 244 299 342 l96 98 6 -83 c4 -46 10 -235 14 -420z"/>
<path d="M9817 6572 c-24 -27 -21 -36 4 -11 11 11 19 23 16 25 -2 2 -11 -4
-20 -14z"/>
<path d="M9726 6479 c-15 -12 -25 -23 -23 -26 3 -2 17 7 32 21 34 31 28 34 -9
5z"/>
<path d="M9668 6423 c-8 -10 -18 -25 -22 -33 -4 -8 2 -3 14 13 12 15 27 24 32
21 7 -4 8 -2 4 4 -9 15 -10 15 -28 -5z"/>
<path d="M9599 6340 c-15 -17 -23 -30 -19 -30 7 0 32 26 44 48 11 19 3 14 -25
-18z"/>
<path d="M10625 5810 c-3 -6 -3 -20 1 -33 6 -20 6 -21 -12 -7 -17 14 -18 13
-6 -1 10 -13 9 -19 -3 -29 -8 -7 -15 -17 -15 -22 0 -5 20 11 45 35 48 49 57
64 26 47 -25 -13 -31 -13 -31 1 0 5 5 7 10 4 6 -3 10 -1 10 4 0 14 -17 14 -25
1z"/>
<path d="M9345 5621 c55 -54 103 -97 107 -95 4 3 -24 32 -62 67 -37 34 -68 66
-69 70 -2 12 -52 57 -65 57 -5 0 35 -44 89 -99z"/>
<path d="M9465 5510 c15 -25 59 -70 85 -86 l25 -15 -25 23 c-14 13 -40 39 -59
58 -19 19 -31 28 -26 20z"/>
<path d="M9070 6360 c0 -5 5 -10 11 -10 5 0 7 5 4 10 -3 6 -8 10 -11 10 -2 0
-4 -4 -4 -10z"/>
<path d="M9023 6301 c-3 -12 -11 -17 -19 -14 -13 5 -18 -7 -15 -34 1 -8 -5
-10 -16 -6 -10 3 -15 3 -11 -2 11 -11 -11 -47 -24 -39 -7 4 -8 2 -4 -5 4 -6 2
-19 -6 -28 -11 -14 -11 -15 0 -9 8 5 22 22 33 40 10 17 19 27 19 21 0 -11 44
52 53 78 3 9 4 17 1 17 -3 0 -8 -9 -11 -19z"/>
<path d="M8905 6179 c-4 -6 -5 -12 -2 -15 2 -3 7 2 10 11 7 17 1 20 -8 4z"/>
<path d="M8896 6133 c-6 -14 -5 -15 5 -6 7 7 10 15 7 18 -3 3 -9 -2 -12 -12z"/>
<path d="M9540 5071 c0 -6 4 -13 10 -16 6 -3 7 1 4 9 -7 18 -14 21 -14 7z"/>
<path d="M9800 12514 c-318 -39 -777 -132 -817 -165 -7 -7 -13 -32 -13 -60 0
-52 11 -60 49 -39 30 16 248 68 376 90 545 92 886 86 1348 -26 82 -20 151 -33
154 -30 4 3 7 25 7 48 1 41 0 42 -44 59 -60 22 -358 84 -501 104 -110 15 -486
28 -559 19z"/>
<path d="M9640 12289 c-201 -13 -441 -53 -532 -88 -27 -10 -27 -10 -13 -52 8
-23 24 -56 35 -74 23 -37 25 -91 10 -199 -6 -38 -53 -407 -105 -820 -52 -413
-117 -926 -144 -1141 -41 -324 -121 -996 -121 -1021 0 -8 31 -5 385 35 445 51
675 64 980 57 289 -6 433 -16 670 -47 211 -27 355 -42 359 -38 4 4 -47 403
-88 689 -14 96 -39 281 -56 410 -17 129 -58 431 -91 670 -33 239 -76 548 -94
685 -18 138 -46 338 -60 447 -15 108 -25 208 -21 222 3 14 26 50 51 80 42 52
44 56 25 66 -86 46 -708 131 -940 129 -69 -1 -181 -6 -250 -10z m620 -164
c155 -7 190 -13 190 -32 0 -9 -6 -13 -15 -9 -9 3 -75 10 -148 16 -72 6 -142
13 -155 17 l-23 5 4 -148 c10 -387 29 -2679 22 -2738 -3 -36 -10 -66 -14 -66
-17 0 -22 109 -31 660 -5 311 -14 788 -20 1060 -20 1031 -23 1228 -16 1238 3
5 23 8 44 6 20 -2 93 -6 162 -9z m-575 -34 c-6 -5 -57 -10 -115 -11 -124 -2
-131 -1 -105 10 28 12 232 13 220 1z m635 -22 c117 -14 126 -30 14 -23 -107 6
-134 11 -134 24 0 13 16 12 120 -1z m88 -75 c16 -3 22 -11 22 -31 l0 -26 -77
7 c-42 3 -91 6 -110 6 -30 0 -33 3 -33 31 l0 30 88 -6 c48 -3 97 -8 110 -11z
m-40 -90 c34 -4 62 -11 62 -17 0 -6 -15 -7 -37 -3 -21 3 -68 6 -105 6 -56 0
-68 3 -68 16 0 14 7 16 43 10 23 -3 70 -9 105 -12z m1 -70 c72 -9 32 -20 -61
-16 -69 3 -88 7 -88 18 0 15 9 15 149 -2z m51 -69 c18 -1 26 -9 28 -25 4 -23
3 -23 -80 -17 -45 4 -98 7 -115 7 -29 0 -33 3 -33 26 l0 26 88 -7 c48 -4 98
-8 112 -10z m-16 -103 c60 -8 76 -33 19 -29 -28 1 -38 -2 -38 -13 0 -10 13
-16 43 -18 26 -2 42 -8 42 -16 0 -17 -231 -9 -242 8 -4 6 -8 26 -8 44 l0 32
68 -1 c37 0 89 -4 116 -7z m47 -161 c22 -1 28 -7 31 -32 l5 -32 -75 7 c-41 3
-96 6 -122 6 -43 0 -48 3 -54 25 -4 14 -5 29 -2 33 2 4 46 4 98 0 51 -3 105
-7 119 -7z m-68 -146 c53 -4 99 -10 101 -14 2 -3 7 -23 11 -43 l7 -37 -68 5
c-38 2 -97 7 -131 10 l-63 6 0 45 c0 42 2 45 23 40 12 -3 66 -9 120 -12z m-3
-195 c107 -12 140 -28 140 -67 0 -25 -2 -25 -42 -20 -24 3 -85 9 -135 13 l-93
7 -6 33 c-7 39 1 57 24 50 10 -3 60 -10 112 -16z m-830 -49 c-19 -11 -140 -21
-140 -12 0 17 17 21 84 21 44 0 65 -4 56 -9z m855 -127 l123 -17 6 -30 c4 -17
3 -34 -1 -38 -5 -4 -66 -2 -138 4 -125 12 -129 13 -136 37 -12 42 -10 60 7 60
9 0 72 -7 139 -16z m50 -188 l100 -11 3 -39 3 -39 -98 7 c-54 3 -122 9 -150
12 l-53 6 0 45 0 44 48 -7 c26 -4 92 -12 147 -18z m-5 -196 c63 -6 116 -12
117 -14 2 -1 6 -17 9 -35 l7 -33 -94 7 c-52 4 -121 10 -154 14 l-60 6 -3 38
c-3 38 -3 38 30 33 18 -3 85 -10 148 -16z m73 -276 l97 -6 0 -43 0 -43 -37 4
c-21 2 -100 6 -175 10 l-138 6 0 37 c0 21 3 41 8 45 4 4 39 5 77 2 39 -3 114
-8 168 -12z m-23 -182 l125 -7 12 -35 c6 -19 8 -38 5 -41 -7 -6 -299 8 -338
16 -16 4 -23 14 -26 40 -2 20 -3 37 -1 39 2 2 25 1 51 -1 26 -2 103 -7 172
-11z m-1180 -39 c0 -10 -5 -25 -10 -33 -7 -11 -9 -6 -7 17 2 34 17 47 17 16z
m1328 -171 c6 -9 12 -27 12 -40 l0 -25 -122 7 c-68 4 -151 9 -185 13 l-63 6 0
33 0 34 173 -6 c139 -5 174 -9 185 -22z m-98 -170 l115 -7 3 -38 c3 -33 1 -38
-15 -34 -10 3 -83 8 -163 12 -188 8 -190 9 -190 51 l0 33 68 -5 c37 -3 119 -9
182 -12z m-1270 -46 c0 -3 -4 -8 -10 -11 -5 -3 -10 -1 -10 4 0 6 5 11 10 11 6
0 10 -2 10 -4z m1325 -145 l80 -6 3 -32 3 -32 -63 4 c-35 3 -120 8 -190 11
l-128 6 0 34 0 34 108 -6 c59 -4 143 -9 187 -13z m13 -177 l82 -6 0 -29 0 -30
-137 6 c-241 10 -266 16 -250 58 5 14 108 14 305 1z m-86 -159 l176 -7 4 -30
c4 -27 3 -29 -20 -23 -13 3 -101 12 -195 20 -95 8 -173 14 -174 15 -2 0 -3 9
-3 21 0 15 5 19 18 15 9 -2 96 -8 194 -11z"/>
<path d="M9475 8869 c-60 -4 -191 -12 -290 -18 -205 -14 -391 -31 -720 -67
-296 -32 -335 -42 -335 -85 0 -38 42 -128 76 -163 l35 -36 97 0 97 0 -7 -102
c-15 -230 -28 -390 -33 -398 -3 -4 -98 -11 -212 -15 -310 -10 -285 -2 -355
-115 -62 -102 -95 -176 -84 -188 11 -10 902 -5 1726 10 720 13 1240 16 2148 9
282 -2 515 -1 517 1 2 2 -16 33 -41 68 -25 36 -58 90 -74 121 -16 30 -36 61
-45 69 -12 10 -73 16 -223 23 -114 5 -211 12 -215 16 -8 8 -77 423 -77 460 0
14 10 16 68 13 66 -4 70 -3 107 29 49 43 85 120 85 182 0 55 -2 56 -124 81
-247 51 -493 74 -1155 106 -225 11 -804 11 -966 -1z m1213 -285 c24 -5 32 -11
32 -27 0 -20 -3 -20 -187 -13 -104 3 -243 7 -310 7 l-123 1 0 26 0 25 278 -7
c152 -4 292 -9 310 -12z m238 -16 c54 -10 73 -21 74 -40 0 -4 -24 -8 -52 -10
-60 -3 -64 -11 -53 -84 l6 -44 55 0 c48 0 54 -2 54 -21 0 -19 -4 -20 -55 -14
l-55 7 0 -33 c0 -19 3 -51 6 -71 6 -35 8 -37 54 -43 28 -4 51 -13 54 -21 3 -8
0 -14 -7 -15 -7 0 -30 -1 -52 -2 l-40 -2 3 -50 c3 -57 20 -75 69 -75 18 0 33
-4 33 -10 0 -6 -33 -10 -78 -10 l-78 0 -12 253 c-15 307 -15 297 1 297 8 0 40
-5 73 -12z m308 -28 c103 -13 106 -14 106 -42 0 -20 -3 -21 -106 -15 l-107 7
7 -52 c4 -29 8 -54 9 -55 2 -1 41 -3 87 -4 95 -2 130 -11 130 -34 0 -13 -18
-15 -110 -15 -122 0 -114 5 -104 -74 l7 -46 107 0 c83 0 109 -3 113 -14 3 -8
3 -17 0 -20 -4 -3 -55 -6 -114 -6 l-108 0 6 -52 c3 -29 10 -57 15 -63 8 -9 57
-14 171 -15 26 0 47 -5 47 -10 0 -7 -50 -10 -142 -8 l-143 3 -12 140 c-6 77
-14 197 -18 267 l-7 126 38 -4 c22 -2 79 -9 128 -14z m-521 -126 c25 -7 21
-31 -5 -35 -13 -2 -153 -2 -313 1 l-290 5 -3 23 -4 24 299 -7 c164 -4 306 -9
316 -11z m-35 -170 c54 -5 62 -8 62 -26 0 -20 -3 -20 -292 -13 -161 4 -304 8
-318 9 -18 1 -26 7 -28 24 l-3 22 258 -5 c142 -3 286 -8 321 -11z m-185 -163
c231 -1 248 -2 245 -18 -3 -17 -24 -18 -298 -15 -162 2 -303 6 -312 8 -10 3
-18 11 -18 17 0 8 21 11 67 10 38 -1 180 -2 316 -2z"/>
</g>
</svg>
