<?xml version="1.0" encoding="UTF-8" standalone="no"?><!DOCTYPE svg PUBLIC "-//W3C//DTD SVG 1.1//EN" "http://www.w3.org/Graphics/SVG/1.1/DTD/svg11.dtd"><svg width="100%" height="100%" viewBox="0 0 4167 4167" version="1.1" xmlns="http://www.w3.org/2000/svg" xmlns:xlink="http://www.w3.org/1999/xlink" xml:space="preserve" xmlns:serif="http://www.serif.com/" style="fill-rule:evenodd;clip-rule:evenodd;stroke-linejoin:round;stroke-miterlimit:2;"><g id="Layer-1" serif:id="Layer 1"><path d="M3237.39,1610.89l0,-353.825l-797.037,-491.63c-109.73,-67.9 -234.067,-101.704 -358.409,-101.704c-124.342,0 -248.679,33.804 -358.408,101.704l-797.038,491.63l0,353.825l-194.275,-0l-248.391,372.45l442.666,-0l0,324.312l1155.45,1222.49l1155.45,-1222.49l0,-324.312l-372.446,-0l0,176.191l-783,828.267l-783,-828.267l0,-176.191l534.609,-0l248.391,-372.45l-783,-0l0,-145.83l619.984,-382.758c48.991,-30.367 105.433,-46.125 163.016,-46.125c57.588,0 114.029,15.758 163.013,46.125l619.987,382.758l0,145.83l372.446,-0Z" style="fill:#ad0909;fill-rule:nonzero;"/><path d="M2680.11,2111.52l-380.25,124.25l-156.325,231.05l405.012,-127.812l131.563,-227.488Z" style="fill:#fff;fill-rule:nonzero;"/><path d="M1483.78,2111.52l380.246,124.25l156.329,231.05l-405.013,-127.812l-131.562,-227.488Z" style="fill:#fff;fill-rule:nonzero;"/></g></svg>
